<?xml version="1.0" encoding="UTF-8"?>
<svg xmlns="http://www.w3.org/2000/svg" viewBox="0 0 270.67 270.72">
  <defs>
    <style>
      .cls-1 {
        fill: none;
        stroke: #f7f6e3;
        stroke-linecap: round;
        stroke-linejoin: round;
        stroke-width: 12px;
      }

      .cls-2 {
        fill: #f7f6e3;
      }
    </style>
  </defs>
  <g id="Lager_2">
    <path class="cls-2" d="M251.75,204.42c-24.61,41.48-69.5,66.3-116.65,66.3-8.14,0-16.34-.74-24.52-2.26-4.07-.75-6.76-4.67-6-8.74.75-4.07,4.67-6.76,8.74-6.01,7.27,1.36,14.57,2.01,21.8,2.01,41.93.01,81.84-22.07,103.73-58.96,31.84-53.65,17.06-122.25-32.24-158.41l3.52,15.06c.75,3.22-1.25,6.45-4.48,7.2-.46.11-.92.16-1.37.16-2.72,0-5.19-1.86-5.84-4.63l-6.2-26.54c-1.65-5.9,1.74-12.08,7.63-13.84l.84-.25h31.4c3.31,0,6,2.68,6,5.99s-2.69,6-6,6h-14.95c54.11,40.98,70.03,117.18,34.59,176.92Z"/>
    <path class="cls-2" d="M173.08,12.91c-.99,4.02-5.05,6.48-9.07,5.5C112.2,5.68,59.07,27.99,31.82,73.92-1.26,129.67,15.98,201.55,69.99,236.43l-3.86-13.15c-.94-3.18.88-6.51,4.06-7.45,3.18-.93,6.51.89,7.45,4.07l7.68,26.15c.95,2.77.79,5.76-.46,8.42-1.28,2.73-3.54,4.8-6.37,5.82l-.83.31-31.35,1.76c-.12.01-.23.01-.34.01-3.16,0-5.81-2.47-5.99-5.66-.19-3.31,2.35-6.14,5.65-6.33l16.85-.95C1.25,210.37-18.41,129.18,18.92,66.27c15.11-25.48,37.55-44.88,64.88-56.11C110.22-.7,139.98-2.94,167.58,3.84c4.03.99,6.49,5.05,5.5,9.07Z"/>
    <rect class="cls-1" x="118.14" y="76.92" width="34.39" height="60.35"/>
  </g>
  <g id="Lager_3">
    <path class="cls-2" d="M188.68,202.11h-106.69c-7.4,0-13.42-6.02-13.42-13.42v-106.69c0-7.4,6.02-13.42,13.42-13.42h106.69c7.4,0,13.42,6.02,13.42,13.42v106.69c0,7.4-6.02,13.42-13.42,13.42ZM83.57,187.11h103.53v-103.53h-103.53v103.53Z"/>
  </g>
</svg>